<svg width="117" height="54" viewBox="20 -1 90 48" fill="none" xmlns="http://www.w3.org/2000/svg">
<g filter="url(#filter0_d_74_1113)">
<path d="M31.3071 24.1215L28.3549 17.3592L27.7112 16.9129L26.9565 16.6726L25.9355 16.398L24.7368 16.9129L23.9377 17.3592L26.9565 24.1215H31.3071Z" fill="url(#paint0_linear_74_1113)"/>
</g>
<g filter="url(#filter1_d_74_1113)">
<path d="M20.7119 21.8604L23.6641 28.6386L24.3078 29.0859L25.0625 29.3267L26.0836 29.602L27.2822 29.0859L28.0813 28.6386L25.0625 21.8604H20.7119Z" fill="url(#paint1_linear_74_1113)"/>
</g>
<path d="M23.7791 17.4476L19.196 24.0723L23.7791 24.1214L27.0921 17.4476C27.3247 16.7649 28.0526 17.1631 28.3874 17.4476C26.9564 14.8259 24.719 16.3552 23.7791 17.4476Z" fill="white"/>
<path d="M28.2209 28.5524L32.804 21.9277L28.2209 21.8786L24.9079 28.5524C24.6753 29.2351 23.9474 28.8369 23.6126 28.5524C25.0436 31.1741 27.281 29.6448 28.2209 28.5524Z" fill="white"/>
<path d="M40.438 27.096C40.242 27.096 40.05 27.074 39.862 27.03C39.674 26.986 39.504 26.908 39.352 26.796C39.204 26.68 39.086 26.518 38.998 26.31C38.91 26.098 38.866 25.826 38.866 25.494C38.866 25.41 38.866 25.324 38.866 25.236C38.866 25.144 38.866 25.048 38.866 24.948V21.528H37.312V20.628H38.308C38.444 20.628 38.55 20.624 38.626 20.616C38.702 20.604 38.756 20.578 38.788 20.538C38.824 20.494 38.846 20.428 38.854 20.34C38.862 20.248 38.866 20.122 38.866 19.962V18.516H39.892V20.628H41.884V21.528H39.892V24.618C39.892 24.706 39.892 24.792 39.892 24.876C39.892 24.96 39.892 25.038 39.892 25.11C39.892 25.45 39.932 25.716 40.012 25.908C40.096 26.1 40.282 26.196 40.57 26.196C40.686 26.196 40.796 26.186 40.9 26.166C41.004 26.146 41.082 26.126 41.134 26.106V26.994C41.066 27.018 40.97 27.04 40.846 27.06C40.726 27.084 40.59 27.096 40.438 27.096ZM47.3974 27V24.63C47.3974 24.518 47.3974 24.386 47.3974 24.234C47.3974 24.078 47.3974 23.922 47.3974 23.766C47.3974 23.606 47.3974 23.47 47.3974 23.358C47.3974 22.746 47.2654 22.284 47.0014 21.972C46.7414 21.66 46.3274 21.504 45.7594 21.504C45.3794 21.504 45.0454 21.578 44.7574 21.726C44.4734 21.874 44.2514 22.076 44.0914 22.332C43.9314 22.588 43.8514 22.878 43.8514 23.202L43.2034 23.004C43.2034 22.548 43.3214 22.134 43.5574 21.762C43.7974 21.386 44.1234 21.088 44.5354 20.868C44.9514 20.644 45.4214 20.532 45.9454 20.532C46.7094 20.532 47.3114 20.762 47.7514 21.222C48.1954 21.682 48.4174 22.318 48.4174 23.13C48.4174 23.342 48.4174 23.586 48.4174 23.862C48.4174 24.138 48.4174 24.428 48.4174 24.732V27H47.3974ZM42.8314 27V17.622H43.8514V27H42.8314ZM50.1608 24.222V23.31H55.0868L54.9068 23.61C54.9068 23.586 54.9068 23.564 54.9068 23.544C54.9068 23.52 54.9068 23.498 54.9068 23.478C54.9068 23.11 54.8288 22.774 54.6728 22.47C54.5208 22.162 54.2928 21.916 53.9888 21.732C53.6848 21.548 53.3088 21.456 52.8608 21.456C52.4088 21.456 52.0108 21.552 51.6668 21.744C51.3228 21.936 51.0548 22.208 50.8628 22.56C50.6708 22.908 50.5748 23.324 50.5748 23.808C50.5748 24.3 50.6668 24.724 50.8508 25.08C51.0388 25.436 51.3048 25.71 51.6488 25.902C51.9928 26.094 52.4008 26.19 52.8728 26.19C53.2088 26.19 53.5008 26.156 53.7488 26.088C53.9968 26.016 54.2008 25.922 54.3608 25.806C54.5248 25.686 54.6488 25.556 54.7328 25.416C54.8168 25.276 54.8668 25.136 54.8828 24.996H55.9028C55.8828 25.252 55.8028 25.506 55.6628 25.758C55.5228 26.01 55.3248 26.24 55.0688 26.448C54.8128 26.652 54.4988 26.816 54.1268 26.94C53.7548 27.064 53.3268 27.126 52.8428 27.126C52.2028 27.126 51.6388 26.986 51.1508 26.706C50.6628 26.426 50.2788 26.038 49.9988 25.542C49.7228 25.046 49.5848 24.476 49.5848 23.832C49.5848 23.18 49.7248 22.608 50.0048 22.116C50.2848 21.62 50.6708 21.232 51.1628 20.952C51.6548 20.672 52.2168 20.532 52.8488 20.532C53.4928 20.532 54.0508 20.672 54.5228 20.952C54.9948 21.232 55.3588 21.616 55.6148 22.104C55.8708 22.588 55.9988 23.14 55.9988 23.76C55.9988 23.824 55.9968 23.908 55.9928 24.012C55.9888 24.116 55.9828 24.186 55.9748 24.222H50.1608ZM62.1828 27L60.4008 20.628H61.3068L62.9928 26.55H62.8068L63.9228 20.628H64.9848L63.6108 27H62.1828ZM57.8748 27L56.4888 20.628H57.5508L58.6788 26.55H58.4928L60.1608 20.628H61.0668L59.3088 27H57.8748ZM68.0126 27.12C67.5286 27.12 67.1046 27.044 66.7406 26.892C66.3806 26.74 66.1006 26.522 65.9006 26.238C65.7006 25.95 65.6006 25.606 65.6006 25.206C65.6006 24.79 65.7086 24.444 65.9246 24.168C66.1406 23.888 66.4446 23.67 66.8366 23.514C67.2286 23.358 67.6846 23.254 68.2046 23.202C68.9886 23.122 69.5466 23.044 69.8786 22.968C70.2106 22.888 70.3766 22.76 70.3766 22.584C70.3766 22.58 70.3766 22.578 70.3766 22.578C70.3766 22.574 70.3766 22.57 70.3766 22.566C70.3766 22.198 70.2266 21.924 69.9266 21.744C69.6266 21.56 69.1926 21.468 68.6246 21.468C68.0326 21.468 67.5726 21.572 67.2446 21.78C66.9166 21.984 66.7526 22.316 66.7526 22.776H65.7446C65.7446 22.3 65.8666 21.896 66.1106 21.564C66.3546 21.228 66.6926 20.972 67.1246 20.796C67.5606 20.62 68.0626 20.532 68.6306 20.532C69.1506 20.532 69.6186 20.612 70.0346 20.772C70.4546 20.928 70.7866 21.162 71.0306 21.474C71.2786 21.782 71.4026 22.164 71.4026 22.62C71.4026 22.704 71.4026 22.788 71.4026 22.872C71.4026 22.952 71.4026 23.034 71.4026 23.118V25.8C71.4026 25.94 71.4086 26.076 71.4206 26.208C71.4326 26.34 71.4526 26.456 71.4806 26.556C71.5166 26.676 71.5566 26.774 71.6006 26.85C71.6446 26.922 71.6806 26.972 71.7086 27H70.6826C70.6626 26.98 70.6326 26.934 70.5926 26.862C70.5526 26.786 70.5146 26.698 70.4786 26.598C70.4506 26.518 70.4286 26.418 70.4126 26.298C70.3966 26.174 70.3886 26.046 70.3886 25.914L70.5566 26.028C70.4326 26.244 70.2506 26.434 70.0106 26.598C69.7746 26.762 69.4886 26.89 69.1526 26.982C68.8166 27.074 68.4366 27.12 68.0126 27.12ZM68.1746 26.202C68.5866 26.202 68.9586 26.14 69.2906 26.016C69.6226 25.888 69.8866 25.7 70.0826 25.452C70.2786 25.204 70.3766 24.896 70.3766 24.528V23.262L70.6046 23.646C70.3486 23.746 70.0286 23.828 69.6446 23.892C69.2646 23.952 68.8666 24.002 68.4506 24.042C67.8466 24.098 67.3906 24.204 67.0826 24.36C66.7786 24.516 66.6266 24.778 66.6266 25.146C66.6266 25.494 66.7526 25.758 67.0046 25.938C67.2566 26.114 67.6466 26.202 68.1746 26.202ZM75.0833 27.096C74.8873 27.096 74.6953 27.074 74.5073 27.03C74.3193 26.986 74.1493 26.908 73.9973 26.796C73.8493 26.68 73.7313 26.518 73.6433 26.31C73.5553 26.098 73.5113 25.826 73.5113 25.494C73.5113 25.41 73.5113 25.324 73.5113 25.236C73.5113 25.144 73.5113 25.048 73.5113 24.948V21.528H71.9573V20.628H72.9533C73.0893 20.628 73.1953 20.624 73.2713 20.616C73.3473 20.604 73.4013 20.578 73.4333 20.538C73.4693 20.494 73.4913 20.428 73.4993 20.34C73.5073 20.248 73.5113 20.122 73.5113 19.962V18.516H74.5373V20.628H76.5293V21.528H74.5373V24.618C74.5373 24.706 74.5373 24.792 74.5373 24.876C74.5373 24.96 74.5373 25.038 74.5373 25.11C74.5373 25.45 74.5773 25.716 74.6573 25.908C74.7413 26.1 74.9273 26.196 75.2153 26.196C75.3313 26.196 75.4413 26.186 75.5453 26.166C75.6493 26.146 75.7273 26.126 75.7793 26.106V26.994C75.7113 27.018 75.6153 27.04 75.4913 27.06C75.3713 27.084 75.2353 27.096 75.0833 27.096ZM80.2898 27.12C79.6818 27.12 79.1298 26.988 78.6338 26.724C78.1378 26.456 77.7438 26.074 77.4518 25.578C77.1638 25.082 77.0198 24.492 77.0198 23.808C77.0198 23.124 77.1638 22.538 77.4518 22.05C77.7438 21.558 78.1378 21.182 78.6338 20.922C79.1298 20.662 79.6818 20.532 80.2898 20.532C80.7538 20.532 81.1678 20.604 81.5318 20.748C81.8958 20.888 82.2038 21.076 82.4558 21.312C82.7078 21.548 82.8998 21.808 83.0318 22.092C83.1678 22.372 83.2358 22.652 83.2358 22.932C83.2358 22.936 83.2358 22.942 83.2358 22.95C83.2358 22.958 83.2358 22.966 83.2358 22.974H82.2218C82.2218 22.954 82.2198 22.932 82.2158 22.908C82.2118 22.88 82.2078 22.852 82.2038 22.824C82.1718 22.556 82.0698 22.322 81.8978 22.122C81.7258 21.918 81.5018 21.758 81.2258 21.642C80.9498 21.526 80.6358 21.468 80.2838 21.468C79.8878 21.468 79.5198 21.554 79.1798 21.726C78.8438 21.894 78.5718 22.152 78.3638 22.5C78.1598 22.844 78.0578 23.28 78.0578 23.808C78.0578 24.332 78.1598 24.77 78.3638 25.122C78.5678 25.474 78.8378 25.74 79.1738 25.92C79.5138 26.096 79.8838 26.184 80.2838 26.184C80.7158 26.184 81.0718 26.116 81.3518 25.98C81.6318 25.844 81.8418 25.664 81.9818 25.44C82.1258 25.212 82.2058 24.968 82.2218 24.708H83.2358C83.2358 24.996 83.1718 25.284 83.0438 25.572C82.9158 25.856 82.7278 26.116 82.4798 26.352C82.2318 26.584 81.9238 26.77 81.5558 26.91C81.1918 27.05 80.7698 27.12 80.2898 27.12ZM89.0304 27V24.63C89.0304 24.518 89.0304 24.386 89.0304 24.234C89.0304 24.078 89.0304 23.922 89.0304 23.766C89.0304 23.606 89.0304 23.47 89.0304 23.358C89.0304 22.746 88.8984 22.284 88.6344 21.972C88.3744 21.66 87.9604 21.504 87.3924 21.504C87.0124 21.504 86.6784 21.578 86.3904 21.726C86.1064 21.874 85.8844 22.076 85.7244 22.332C85.5644 22.588 85.4844 22.878 85.4844 23.202L84.8364 23.004C84.8364 22.548 84.9544 22.134 85.1904 21.762C85.4304 21.386 85.7564 21.088 86.1684 20.868C86.5844 20.644 87.0544 20.532 87.5784 20.532C88.3424 20.532 88.9444 20.762 89.3844 21.222C89.8284 21.682 90.0504 22.318 90.0504 23.13C90.0504 23.342 90.0504 23.586 90.0504 23.862C90.0504 24.138 90.0504 24.428 90.0504 24.732V27H89.0304ZM84.4644 27V17.622H85.4844V27H84.4644ZM93.8998 27.12C93.5158 27.12 93.1598 27.08 92.8318 27C92.5078 26.916 92.2238 26.796 91.9798 26.64C91.7398 26.48 91.5518 26.284 91.4158 26.052C91.2838 25.82 91.2178 25.554 91.2178 25.254C91.2178 25.222 91.2178 25.19 91.2178 25.158C91.2178 25.122 91.2178 25.092 91.2178 25.068H92.2438C92.2438 25.092 92.2438 25.112 92.2438 25.128C92.2438 25.144 92.2438 25.168 92.2438 25.2C92.2438 25.524 92.3938 25.772 92.6938 25.944C92.9938 26.112 93.4038 26.196 93.9238 26.196C94.2438 26.196 94.5298 26.164 94.7818 26.1C95.0338 26.036 95.2318 25.938 95.3758 25.806C95.5238 25.674 95.5978 25.508 95.5978 25.308C95.5978 24.976 95.4418 24.74 95.1298 24.6C94.8218 24.456 94.3598 24.332 93.7438 24.228C93.4198 24.172 93.1118 24.1 92.8198 24.012C92.5278 23.92 92.2678 23.802 92.0398 23.658C91.8158 23.514 91.6378 23.336 91.5058 23.124C91.3778 22.908 91.3138 22.65 91.3138 22.35C91.3138 21.962 91.4278 21.634 91.6558 21.366C91.8878 21.094 92.1998 20.888 92.5918 20.748C92.9838 20.604 93.4198 20.532 93.8998 20.532C94.3638 20.532 94.7918 20.606 95.1838 20.754C95.5758 20.902 95.8898 21.118 96.1258 21.402C96.3658 21.682 96.4858 22.028 96.4858 22.44C96.4858 22.456 96.4858 22.476 96.4858 22.5C96.4858 22.52 96.4858 22.54 96.4858 22.56H95.4658C95.4658 22.54 95.4658 22.524 95.4658 22.512C95.4658 22.5 95.4658 22.486 95.4658 22.47C95.4658 22.238 95.3918 22.048 95.2438 21.9C95.0958 21.748 94.9038 21.636 94.6678 21.564C94.4318 21.488 94.1798 21.45 93.9118 21.45C93.6598 21.45 93.4118 21.478 93.1678 21.534C92.9238 21.586 92.7218 21.674 92.5618 21.798C92.4018 21.922 92.3218 22.092 92.3218 22.308C92.3218 22.524 92.3958 22.698 92.5438 22.83C92.6958 22.958 92.9078 23.064 93.1798 23.148C93.4558 23.228 93.7798 23.302 94.1518 23.37C94.4838 23.43 94.7978 23.506 95.0938 23.598C95.3898 23.686 95.6498 23.8 95.8738 23.94C96.1018 24.08 96.2798 24.258 96.4078 24.474C96.5398 24.686 96.6058 24.946 96.6058 25.254C96.6058 25.566 96.5338 25.838 96.3898 26.07C96.2498 26.302 96.0538 26.496 95.8018 26.652C95.5538 26.808 95.2658 26.924 94.9378 27C94.6138 27.08 94.2678 27.12 93.8998 27.12ZM97.8303 29.622V20.628H98.8503V29.622H97.8303ZM100.944 27.12C100.452 27.12 99.9923 27 99.5643 26.76C99.1363 26.516 98.7883 26.182 98.5203 25.758C98.2563 25.334 98.1243 24.85 98.1243 24.306C98.1243 24.294 98.1243 24.284 98.1243 24.276C98.1243 24.268 98.1243 24.258 98.1243 24.246L98.8563 24.228C98.8563 24.236 98.8563 24.246 98.8563 24.258C98.8563 24.266 98.8563 24.274 98.8563 24.282C98.8563 24.626 98.9463 24.94 99.1263 25.224C99.3103 25.508 99.5503 25.734 99.8463 25.902C100.142 26.07 100.46 26.154 100.8 26.154C101.364 26.154 101.832 25.962 102.204 25.578C102.58 25.19 102.768 24.6 102.768 23.808C102.768 23.012 102.582 22.424 102.21 22.044C101.838 21.66 101.368 21.468 100.8 21.468C100.46 21.468 100.142 21.552 99.8463 21.72C99.5503 21.884 99.3103 22.106 99.1263 22.386C98.9463 22.666 98.8563 22.98 98.8563 23.328L98.1243 23.304C98.1243 22.756 98.2563 22.274 98.5203 21.858C98.7883 21.442 99.1363 21.118 99.5643 20.886C99.9923 20.65 100.452 20.532 100.944 20.532C101.46 20.532 101.936 20.66 102.372 20.916C102.808 21.168 103.158 21.538 103.422 22.026C103.686 22.514 103.818 23.108 103.818 23.808C103.818 24.52 103.688 25.124 103.428 25.62C103.168 26.112 102.82 26.486 102.384 26.742C101.948 26.994 101.468 27.12 100.944 27.12ZM108.07 27.114C107.43 27.114 106.864 26.972 106.372 26.688C105.884 26.4 105.5 26.008 105.22 25.512C104.944 25.012 104.806 24.444 104.806 23.808C104.806 23.172 104.944 22.608 105.22 22.116C105.5 21.624 105.884 21.238 106.372 20.958C106.864 20.678 107.43 20.538 108.07 20.538C108.71 20.538 109.274 20.678 109.762 20.958C110.254 21.238 110.638 21.624 110.914 22.116C111.194 22.608 111.334 23.172 111.334 23.808C111.334 24.444 111.194 25.012 110.914 25.512C110.638 26.008 110.254 26.4 109.762 26.688C109.274 26.972 108.71 27.114 108.07 27.114ZM108.07 26.178C108.51 26.178 108.898 26.08 109.234 25.884C109.57 25.688 109.832 25.412 110.02 25.056C110.212 24.7 110.308 24.284 110.308 23.808C110.308 23.332 110.212 22.92 110.02 22.572C109.832 22.22 109.57 21.95 109.234 21.762C108.898 21.57 108.51 21.474 108.07 21.474C107.634 21.474 107.246 21.57 106.906 21.762C106.57 21.95 106.306 22.22 106.114 22.572C105.926 22.92 105.832 23.332 105.832 23.808C105.832 24.284 105.926 24.7 106.114 25.056C106.306 25.412 106.57 25.688 106.906 25.884C107.246 26.08 107.634 26.178 108.07 26.178ZM114.958 27.096C114.762 27.096 114.57 27.074 114.382 27.03C114.194 26.986 114.024 26.908 113.872 26.796C113.724 26.68 113.606 26.518 113.518 26.31C113.43 26.098 113.386 25.826 113.386 25.494C113.386 25.41 113.386 25.324 113.386 25.236C113.386 25.144 113.386 25.048 113.386 24.948V21.528H111.832V20.628H112.828C112.964 20.628 113.07 20.624 113.146 20.616C113.222 20.604 113.276 20.578 113.308 20.538C113.344 20.494 113.366 20.428 113.374 20.34C113.382 20.248 113.386 20.122 113.386 19.962V18.516H114.412V20.628H116.404V21.528H114.412V24.618C114.412 24.706 114.412 24.792 114.412 24.876C114.412 24.96 114.412 25.038 114.412 25.11C114.412 25.45 114.452 25.716 114.532 25.908C114.616 26.1 114.802 26.196 115.09 26.196C115.206 26.196 115.316 26.186 115.42 26.166C115.524 26.146 115.602 26.126 115.654 26.106V26.994C115.586 27.018 115.49 27.04 115.366 27.06C115.246 27.084 115.11 27.096 114.958 27.096Z" fill="white"/>
<defs>
<filter id="filter0_d_74_1113" x="3.93774" y="0.39801" width="47.3694" height="47.7235" filterUnits="userSpaceOnUse" color-interpolation-filters="sRGB">
<feFlood flood-opacity="0" result="BackgroundImageFix"/>
<feColorMatrix in="SourceAlpha" type="matrix" values="0 0 0 0 0 0 0 0 0 0 0 0 0 0 0 0 0 0 127 0" result="hardAlpha"/>
<feOffset dy="4"/>
<feGaussianBlur stdDeviation="10"/>
<feComposite in2="hardAlpha" operator="out"/>
<feColorMatrix type="matrix" values="0 0 0 0 0 0 0 0 0 0 0 0 0 0 0 0 0 0 0.25 0"/>
<feBlend mode="normal" in2="BackgroundImageFix" result="effect1_dropShadow_74_1113"/>
<feBlend mode="normal" in="SourceGraphic" in2="effect1_dropShadow_74_1113" result="shape"/>
</filter>
<filter id="filter1_d_74_1113" x="0.711914" y="5.86038" width="47.3694" height="47.7416" filterUnits="userSpaceOnUse" color-interpolation-filters="sRGB">
<feFlood flood-opacity="0" result="BackgroundImageFix"/>
<feColorMatrix in="SourceAlpha" type="matrix" values="0 0 0 0 0 0 0 0 0 0 0 0 0 0 0 0 0 0 127 0" result="hardAlpha"/>
<feOffset dy="4"/>
<feGaussianBlur stdDeviation="10"/>
<feComposite in2="hardAlpha" operator="out"/>
<feColorMatrix type="matrix" values="0 0 0 0 0 0 0 0 0 0 0 0 0 0 0 0 0 0 0.25 0"/>
<feBlend mode="normal" in2="BackgroundImageFix" result="effect1_dropShadow_74_1113"/>
<feBlend mode="normal" in="SourceGraphic" in2="effect1_dropShadow_74_1113" result="shape"/>
</filter>
<linearGradient id="paint0_linear_74_1113" x1="30.5436" y1="24.1215" x2="27.0425" y2="17.5716" gradientUnits="userSpaceOnUse">
<stop/>
<stop offset="0.494792" stop-color="white"/>
<stop offset="1" stop-color="white"/>
</linearGradient>
<linearGradient id="paint1_linear_74_1113" x1="21.4754" y1="21.8604" x2="24.9893" y2="28.4189" gradientUnits="userSpaceOnUse">
<stop stop-color="#0C0C0C"/>
<stop offset="0.494792" stop-color="white"/>
<stop offset="1" stop-color="white"/>
</linearGradient>
</defs>
</svg>
